<?xml version="1.0" standalone="no"?>
<!DOCTYPE svg PUBLIC "-//W3C//DTD SVG 20010904//EN"
 "http://www.w3.org/TR/2001/REC-SVG-20010904/DTD/svg10.dtd">
<svg version="1.0" xmlns="http://www.w3.org/2000/svg"
 width="1137.000000pt" height="1037.000000pt" viewBox="0 0 1137.000000 1037.000000"
 preserveAspectRatio="xMidYMid meet">

<g transform="translate(0.000000,1037.000000) scale(0.100000,-0.100000)"
fill="#000000" stroke="none">
<path d="M2409 3308 c0 -29 -1 -300 -2 -603 l-1 -550 108 -5 c59 -3 110 -3
112 -1 2 2 4 276 4 608 l0 603 -110 0 -110 0 -1 -52z"/>
<path d="M4760 2756 l0 -605 106 -3 c63 -2 109 1 113 7 4 6 6 278 5 605 l-4
595 -110 3 -110 3 0 -605z"/>
<path d="M9032 2753 l3 -606 108 -1 107 -1 0 130 0 131 40 39 c25 25 43 35 49
30 9 -9 103 -142 198 -279 l33 -46 130 0 c71 0 130 2 130 5 0 2 -37 55 -82
117 -225 311 -258 357 -258 363 0 4 74 88 164 188 l165 182 -127 3 -127 3 -92
-98 c-51 -54 -118 -128 -150 -165 -32 -37 -61 -67 -65 -67 -5 -1 -8 152 -8
339 l0 340 -110 0 -110 0 2 -607z"/>
<path d="M1362 2744 l3 -596 297 1 c311 0 355 5 439 47 63 31 131 110 152 174
24 75 22 183 -4 237 -27 56 -98 118 -160 138 l-50 17 63 42 c82 54 118 119
118 211 0 134 -58 229 -170 279 -86 39 -150 46 -438 46 l-252 0 2 -596z m559
375 c48 -24 69 -63 69 -128 0 -42 -5 -56 -30 -85 -42 -47 -73 -55 -230 -58
l-135 -3 -3 140 c-1 76 0 146 3 153 9 24 274 8 326 -19z m32 -487 c64 -28 89
-70 84 -140 -4 -60 -27 -97 -78 -127 -30 -17 -56 -20 -200 -23 l-165 -4 -1
154 c0 84 2 157 5 162 3 5 73 6 157 4 123 -4 160 -9 198 -26z"/>
<path d="M3720 2755 c1 -322 3 -591 6 -598 3 -9 60 -12 232 -10 361 3 391 6
465 40 114 54 180 146 193 270 14 127 -39 220 -158 277 l-71 34 39 21 c49 25
99 72 121 114 13 23 18 55 18 117 0 73 -4 93 -28 142 -43 89 -128 144 -253
167 -32 6 -172 11 -311 11 l-253 0 0 -585z m551 365 c52 -27 72 -69 67 -137
-4 -41 -11 -60 -33 -83 -39 -41 -71 -49 -220 -52 l-130 -3 -3 140 c-1 76 0
146 3 154 9 23 263 7 316 -19z m-41 -471 c118 -19 156 -62 148 -166 -4 -49
-10 -61 -41 -89 -49 -45 -90 -54 -249 -54 l-138 0 0 160 0 160 108 0 c59 0
136 -5 172 -11z"/>
<path d="M6070 2747 c0 -327 2 -596 4 -598 2 -2 145 -2 318 1 l313 5 58 27
c81 38 129 78 159 135 28 51 52 156 44 195 -2 13 -7 39 -11 58 -11 61 -66 124
-139 160 -36 18 -66 34 -66 36 0 2 17 12 38 23 50 25 106 88 122 136 17 51 9
189 -14 237 -41 85 -133 145 -260 169 -27 5 -165 9 -307 9 l-259 0 0 -593z
m555 373 c72 -35 97 -135 51 -205 -33 -51 -83 -65 -233 -67 l-138 -3 -3 140
c-1 76 0 146 3 154 9 23 264 8 320 -19z m24 -490 c45 -20 57 -31 73 -66 33
-77 2 -160 -76 -202 -24 -13 -66 -17 -188 -20 l-158 -4 0 162 0 163 148 -5
c125 -4 155 -8 201 -28z"/>
<path d="M3025 2999 c-62 -21 -113 -55 -152 -99 -24 -26 -57 -119 -47 -129 3
-3 45 -11 94 -16 l89 -10 34 36 c95 101 287 49 275 -74 -3 -29 -8 -33 -48 -44
-25 -6 -79 -12 -120 -12 -136 -2 -257 -39 -306 -93 -81 -88 -82 -245 -4 -340
51 -62 107 -82 230 -83 117 0 167 16 228 73 l32 30 15 -28 c8 -16 15 -36 15
-44 0 -20 8 -21 105 -18 l85 3 0 303 c0 337 -5 371 -63 448 -23 30 -54 54
-102 78 -65 32 -77 34 -185 37 -97 3 -124 0 -175 -18z m295 -533 c0 -73 -29
-115 -95 -138 -135 -46 -254 9 -216 100 19 45 69 64 184 73 54 3 101 9 104 13
16 16 23 2 23 -48z"/>
<path d="M5392 3005 c-59 -17 -93 -35 -140 -79 -48 -44 -89 -129 -73 -153 3
-6 46 -14 94 -20 l89 -9 19 27 c59 84 233 80 273 -6 9 -18 16 -45 16 -59 0
-37 -31 -47 -175 -57 -189 -13 -284 -51 -336 -136 -20 -32 -24 -51 -24 -123 0
-75 3 -91 28 -132 55 -94 145 -134 281 -126 91 6 149 29 203 81 l33 30 15 -36
c8 -20 15 -41 15 -46 0 -15 13 -16 105 -13 l86 4 -3 321 -3 322 -28 57 c-32
66 -70 101 -147 137 -46 21 -72 25 -165 28 -75 2 -127 -2 -163 -12z m278 -533
c0 -97 -58 -151 -173 -159 -105 -7 -167 44 -138 114 19 46 59 63 172 73 55 4
103 11 107 14 3 3 11 6 19 6 9 0 13 -15 13 -48z"/>
<path d="M7358 3005 c-97 -26 -192 -104 -238 -195 -47 -92 -62 -243 -35 -358
32 -135 106 -230 223 -285 64 -31 72 -32 192 -32 120 0 128 1 192 32 164 78
250 240 235 447 -14 192 -117 337 -276 386 -74 23 -218 26 -293 5z m232 -197
c77 -39 110 -110 110 -233 0 -91 -14 -137 -53 -182 -60 -69 -145 -89 -222 -54
-86 39 -120 110 -119 246 0 96 19 150 67 196 55 53 143 64 217 27z"/>
<path d="M8337 3010 c-214 -54 -332 -257 -298 -512 21 -156 97 -266 229 -330
65 -32 70 -33 197 -33 125 0 132 1 197 32 169 80 253 254 228 473 -20 175 -97
285 -245 352 -41 18 -71 23 -160 25 -60 1 -127 -2 -148 -7z m193 -190 c45 -12
104 -73 120 -125 18 -56 16 -202 -5 -251 -59 -142 -245 -167 -334 -44 -74 102
-63 300 22 381 47 46 121 60 197 39z"/>
</g>
</svg>
